<svg id="visual" viewBox="0 0 1920 1080" width="1920" height="1080" xmlns="http://www.w3.org/2000/svg" xmlns:xlink="http://www.w3.org/1999/xlink" version="1.1"><rect width="1920" height="1080" fill="#FFFFFF"></rect><g><g transform="translate(1630 169)"><path d="M0 -185.4L160.5 -92.7L160.5 92.7L0 185.4L-160.5 92.7L-160.5 -92.7Z" fill="#f4f9f6"></path></g><g transform="translate(1228 176)"><path d="M0 -119L103.1 -59.5L103.1 59.5L0 119L-103.1 59.5L-103.1 -59.5Z" fill="#f4f9f6"></path></g><g transform="translate(1853 609)"><path d="M0 -52L45 -26L45 26L0 52L-45 26L-45 -26Z" fill="#f4f9f6"></path></g><g transform="translate(621 1030)"><path d="M0 -39L33.8 -19.5L33.8 19.5L0 39L-33.8 19.5L-33.8 -19.5Z" fill="#f4f9f6"></path></g><g transform="translate(823 116)"><path d="M0 -40L34.6 -20L34.6 20L0 40L-34.6 20L-34.6 -20Z" fill="#f4f9f6"></path></g><g transform="translate(275 359)"><path d="M0 -91L78.8 -45.5L78.8 45.5L0 91L-78.8 45.5L-78.8 -45.5Z" fill="#f4f9f6"></path></g><g transform="translate(983 808)"><path d="M0 -121L104.8 -60.5L104.8 60.5L0 121L-104.8 60.5L-104.8 -60.5Z" fill="#f4f9f6"></path></g><g transform="translate(279 861)"><path d="M0 -148L128.2 -74L128.2 74L0 148L-128.2 74L-128.2 -74Z" fill="#f4f9f6"></path></g><g transform="translate(1452 517)"><path d="M0 -138L119.5 -69L119.5 69L0 138L-119.5 69L-119.5 -69Z" fill="#f4f9f6"></path></g><g transform="translate(569 597)"><path d="M0 -110L95.3 -55L95.3 55L0 110L-95.3 55L-95.3 -55Z" fill="#f4f9f6"></path></g><g transform="translate(1873 1071)"><path d="M0 -150L129.9 -75L129.9 75L0 150L-129.9 75L-129.9 -75Z" fill="#f4f9f6"></path></g><g transform="translate(33 35)"><path d="M0 -166L143.8 -83L143.8 83L0 166L-143.8 83L-143.8 -83Z" fill="#f4f9f6"></path></g><g transform="translate(1466 896)"><path d="M0 -62L53.7 -31L53.7 31L0 62L-53.7 31L-53.7 -31Z" fill="#f4f9f6"></path></g></g></svg>