<svg id="visual" viewBox="0 0 1920 1080" width="1920" height="1080" xmlns="http://www.w3.org/2000/svg" xmlns:xlink="http://www.w3.org/1999/xlink" version="1.1"><path d="M0 411L384 325L768 314L1152 357L1536 347L1920 379L1920 0L1536 0L1152 0L768 0L384 0L0 0Z" fill="#ffffff"></path><path d="M0 746L384 735L768 703L1152 692L1536 660L1920 681L1920 377L1536 345L1152 355L768 312L384 323L0 409Z" fill="#f4fafa"></path><path d="M0 897L384 887L768 887L1152 897L1536 854L1920 843L1920 679L1536 658L1152 690L768 701L384 733L0 744Z" fill="#eaf4f4"></path><path d="M0 1081L384 1081L768 1081L1152 1081L1536 1081L1920 1081L1920 841L1536 852L1152 895L768 885L384 885L0 895Z" fill="#dfefef"></path></svg>