<svg id="visual" viewBox="0 0 1920 1080" width="1920" height="1080" xmlns="http://www.w3.org/2000/svg" xmlns:xlink="http://www.w3.org/1999/xlink" version="1.1"><path d="M0 271L175 271L175 195L349 195L349 109L524 109L524 239L698 239L698 206L873 206L873 195L1047 195L1047 163L1222 163L1222 249L1396 249L1396 174L1571 174L1571 271L1745 271L1745 120L1920 120L1920 163L1920 0L1920 0L1745 0L1745 0L1571 0L1571 0L1396 0L1396 0L1222 0L1222 0L1047 0L1047 0L873 0L873 0L698 0L698 0L524 0L524 0L349 0L349 0L175 0L175 0L0 0Z" fill="#dfefef"></path><path d="M0 357L175 357L175 401L349 401L349 325L524 325L524 357L698 357L698 433L873 433L873 314L1047 314L1047 379L1222 379L1222 379L1396 379L1396 303L1571 303L1571 379L1745 379L1745 228L1920 228L1920 249L1920 161L1920 118L1745 118L1745 269L1571 269L1571 172L1396 172L1396 247L1222 247L1222 161L1047 161L1047 193L873 193L873 204L698 204L698 237L524 237L524 107L349 107L349 193L175 193L175 269L0 269Z" fill="#e7f3f3"></path><path d="M0 519L175 519L175 541L349 541L349 422L524 422L524 487L698 487L698 509L873 509L873 465L1047 465L1047 487L1222 487L1222 487L1396 487L1396 487L1571 487L1571 563L1745 563L1745 390L1920 390L1920 379L1920 247L1920 226L1745 226L1745 377L1571 377L1571 301L1396 301L1396 377L1222 377L1222 377L1047 377L1047 312L873 312L873 431L698 431L698 355L524 355L524 323L349 323L349 399L175 399L175 355L0 355Z" fill="#eff7f7"></path><path d="M0 779L175 779L175 876L349 876L349 660L524 660L524 833L698 833L698 692L873 692L873 865L1047 865L1047 854L1222 854L1222 854L1396 854L1396 649L1571 649L1571 789L1745 789L1745 595L1920 595L1920 573L1920 377L1920 388L1745 388L1745 561L1571 561L1571 485L1396 485L1396 485L1222 485L1222 485L1047 485L1047 463L873 463L873 507L698 507L698 485L524 485L524 420L349 420L349 539L175 539L175 517L0 517Z" fill="#f7fbfb"></path><path d="M0 1081L175 1081L175 1081L349 1081L349 1081L524 1081L524 1081L698 1081L698 1081L873 1081L873 1081L1047 1081L1047 1081L1222 1081L1222 1081L1396 1081L1396 1081L1571 1081L1571 1081L1745 1081L1745 1081L1920 1081L1920 1081L1920 571L1920 593L1745 593L1745 787L1571 787L1571 647L1396 647L1396 852L1222 852L1222 852L1047 852L1047 863L873 863L873 690L698 690L698 831L524 831L524 658L349 658L349 874L175 874L175 777L0 777Z" fill="#ffffff"></path></svg>