<svg id="visual" viewBox="0 0 1920 1080" width="1920" height="1080" xmlns="http://www.w3.org/2000/svg" xmlns:xlink="http://www.w3.org/1999/xlink" version="1.1"><g stroke-width="1" stroke-linejoin="bevel"><path d="M963 527L1056.1 649L1067.1 558Z" fill="#f5faf7" stroke="#f5faf7"></path><path d="M963 527L934 662L1056.1 649Z" fill="#fafdfb" stroke="#fafdfb"></path><path d="M963 527L858.9 571L934 662Z" fill="#f8fbf9" stroke="#f8fbf9"></path><path d="M858.9 571L816.9 635L934 662Z" fill="#f7fbf8" stroke="#f7fbf8"></path><path d="M1067.1 558L968 400L963 527Z" fill="#f8fbf9" stroke="#f8fbf9"></path><path d="M963 527L856.9 387L858.9 571Z" fill="#f6faf8" stroke="#f6faf8"></path><path d="M858.9 571L719.7 524L816.9 635Z" fill="#f8fbf9" stroke="#f8fbf9"></path><path d="M983 821L1094.1 773L1056.1 649Z" fill="#fbfdfc" stroke="#fbfdfc"></path><path d="M1056.1 649L1210.3 561L1067.1 558Z" fill="#fbfdfc" stroke="#fbfdfc"></path><path d="M983 821L1056.1 649L934 662Z" fill="#fbfdfc" stroke="#fbfdfc"></path><path d="M1244.3 664L1210.3 561L1056.1 649Z" fill="#f7fbf8" stroke="#f7fbf8"></path><path d="M1067.1 558L1106.1 371L968 400Z" fill="#fefefe" stroke="#fefefe"></path><path d="M842.9 779L983 821L934 662Z" fill="#f4f9f6" stroke="#f4f9f6"></path><path d="M816.9 635L842.9 779L934 662Z" fill="#f4f9f6" stroke="#f4f9f6"></path><path d="M1228.3 415L1106.1 371L1067.1 558Z" fill="#f8fbf9" stroke="#f8fbf9"></path><path d="M967 288L856.9 387L968 400Z" fill="#f4f9f6" stroke="#f4f9f6"></path><path d="M968 400L856.9 387L963 527Z" fill="#fdfefd" stroke="#fdfefd"></path><path d="M1094.1 773L1244.3 664L1056.1 649Z" fill="#f7fbf8" stroke="#f7fbf8"></path><path d="M856.9 387L719.7 524L858.9 571Z" fill="#f5faf7" stroke="#f5faf7"></path><path d="M816.9 635L675.7 639L842.9 779Z" fill="#f9fcfa" stroke="#f9fcfa"></path><path d="M1343.4 550L1228.3 415L1210.3 561Z" fill="#f9fcfa" stroke="#f9fcfa"></path><path d="M1210.3 561L1228.3 415L1067.1 558Z" fill="#ffffff" stroke="#ffffff"></path><path d="M1135.1 295L967 288L1106.1 371Z" fill="#f8fbf9" stroke="#f8fbf9"></path><path d="M1106.1 371L967 288L968 400Z" fill="#f9fcfa" stroke="#f9fcfa"></path><path d="M961 969L1070.1 909L983 821Z" fill="#fbfdfc" stroke="#fbfdfc"></path><path d="M983 821L1070.1 909L1094.1 773Z" fill="#f6faf8" stroke="#f6faf8"></path><path d="M1094.1 773L1235.3 841L1244.3 664Z" fill="#f7fbf8" stroke="#f7fbf8"></path><path d="M719.7 524L675.7 639L816.9 635Z" fill="#f5faf7" stroke="#f5faf7"></path><path d="M967 288L853.9 303L856.9 387Z" fill="#f5faf7" stroke="#f5faf7"></path><path d="M856.9 387L696.7 377L719.7 524Z" fill="#fefefe" stroke="#fefefe"></path><path d="M1228.3 415L1135.1 295L1106.1 371Z" fill="#fdfefd" stroke="#fdfefd"></path><path d="M1070.1 909L1235.3 841L1094.1 773Z" fill="#fdfefd" stroke="#fdfefd"></path><path d="M1391.4 668L1343.4 550L1244.3 664Z" fill="#f9fcfa" stroke="#f9fcfa"></path><path d="M1244.3 664L1343.4 550L1210.3 561Z" fill="#f4f9f6" stroke="#f4f9f6"></path><path d="M1228.3 415L1251.3 235L1135.1 295Z" fill="#f8fbf9" stroke="#f8fbf9"></path><path d="M853.9 303L696.7 377L856.9 387Z" fill="#fdfefd" stroke="#fdfefd"></path><path d="M518.6 522L585.6 688L675.7 639Z" fill="#ffffff" stroke="#ffffff"></path><path d="M796.9 926L983 821L842.9 779Z" fill="#f7fbf8" stroke="#f7fbf8"></path><path d="M796.9 926L961 969L983 821Z" fill="#fdfefd" stroke="#fdfefd"></path><path d="M1070.1 909L1198.3 965L1235.3 841Z" fill="#fafdfb" stroke="#fafdfb"></path><path d="M675.7 639L704.7 838L842.9 779Z" fill="#f8fbf9" stroke="#f8fbf9"></path><path d="M704.7 838L796.9 926L842.9 779Z" fill="#fefefe" stroke="#fefefe"></path><path d="M1343.4 550L1342.4 410L1228.3 415Z" fill="#ffffff" stroke="#ffffff"></path><path d="M1351.4 790L1391.4 668L1244.3 664Z" fill="#fefefe" stroke="#fefefe"></path><path d="M1500.6 434L1386.4 313L1342.4 410Z" fill="#f8fbf9" stroke="#f8fbf9"></path><path d="M1397.4 951L1351.4 790L1235.3 841Z" fill="#f4f9f6" stroke="#f4f9f6"></path><path d="M1235.3 841L1351.4 790L1244.3 664Z" fill="#f7fbf8" stroke="#f7fbf8"></path><path d="M1061.1 1080L1198.3 965L1070.1 909Z" fill="#f5faf7" stroke="#f5faf7"></path><path d="M518.6 522L675.7 639L719.7 524Z" fill="#f5faf7" stroke="#f5faf7"></path><path d="M675.7 639L585.6 688L704.7 838Z" fill="#f4f9f6" stroke="#f4f9f6"></path><path d="M967 288L844.9 114L853.9 303Z" fill="#f5faf7" stroke="#f5faf7"></path><path d="M853.9 303L672.7 274L696.7 377Z" fill="#f4f9f6" stroke="#f4f9f6"></path><path d="M1135.1 295L994 158L967 288Z" fill="#f5faf7" stroke="#f5faf7"></path><path d="M1101.1 92L994 158L1135.1 295Z" fill="#f9fcfa" stroke="#f9fcfa"></path><path d="M1342.4 410L1251.3 235L1228.3 415Z" fill="#fafdfb" stroke="#fafdfb"></path><path d="M532.6 806L711.7 934L704.7 838Z" fill="#fefefe" stroke="#fefefe"></path><path d="M704.7 838L711.7 934L796.9 926Z" fill="#f5faf7" stroke="#f5faf7"></path><path d="M849.9 1080L947 1080L961 969Z" fill="#f9fcfa" stroke="#f9fcfa"></path><path d="M844.9 114L672.7 274L853.9 303Z" fill="#f8fbf9" stroke="#f8fbf9"></path><path d="M696.7 377L586.6 393L719.7 524Z" fill="#f5faf7" stroke="#f5faf7"></path><path d="M672.7 274L586.6 393L696.7 377Z" fill="#f5faf7" stroke="#f5faf7"></path><path d="M1484.6 501L1342.4 410L1343.4 550Z" fill="#fbfdfc" stroke="#fbfdfc"></path><path d="M1342.4 410L1386.4 313L1251.3 235Z" fill="#fdfefd" stroke="#fdfefd"></path><path d="M586.6 393L518.6 522L719.7 524Z" fill="#ffffff" stroke="#ffffff"></path><path d="M849.9 1080L961 969L796.9 926Z" fill="#f6faf8" stroke="#f6faf8"></path><path d="M961 969L1061.1 1080L1070.1 909Z" fill="#fafdfb" stroke="#fafdfb"></path><path d="M947 1080L1061.1 1080L961 969Z" fill="#f4f9f6" stroke="#f4f9f6"></path><path d="M1490.6 696L1484.6 501L1391.4 668Z" fill="#f9fcfa" stroke="#f9fcfa"></path><path d="M1391.4 668L1484.6 501L1343.4 550Z" fill="#f9fcfa" stroke="#f9fcfa"></path><path d="M1530.6 784L1490.6 696L1351.4 790Z" fill="#f9fcfa" stroke="#f9fcfa"></path><path d="M1351.4 790L1490.6 696L1391.4 668Z" fill="#f5faf7" stroke="#f5faf7"></path><path d="M994 158L844.9 114L967 288Z" fill="#fefefe" stroke="#fefefe"></path><path d="M713.7 1080L849.9 1080L796.9 926Z" fill="#f7fbf8" stroke="#f7fbf8"></path><path d="M369.4 662L532.6 806L585.6 688Z" fill="#f9fcfa" stroke="#f9fcfa"></path><path d="M585.6 688L532.6 806L704.7 838Z" fill="#f8fbf9" stroke="#f8fbf9"></path><path d="M711.7 934L713.7 1080L796.9 926Z" fill="#f5faf7" stroke="#f5faf7"></path><path d="M1207.3 106L1135.1 295L1251.3 235Z" fill="#ffffff" stroke="#ffffff"></path><path d="M1207.3 106L1101.1 92L1135.1 295Z" fill="#f5faf7" stroke="#f5faf7"></path><path d="M994 158L998 0L844.9 114Z" fill="#f6faf8" stroke="#f6faf8"></path><path d="M1061.1 1080L1202.3 1080L1198.3 965Z" fill="#fdfefd" stroke="#fdfefd"></path><path d="M1198.3 965L1397.4 951L1235.3 841Z" fill="#fafdfb" stroke="#fafdfb"></path><path d="M1604.7 382L1500.6 434L1647.7 515Z" fill="#fafdfb" stroke="#fafdfb"></path><path d="M1484.6 501L1500.6 434L1342.4 410Z" fill="#ffffff" stroke="#ffffff"></path><path d="M1405.4 99L1207.3 106L1251.3 235Z" fill="#f9fcfa" stroke="#f9fcfa"></path><path d="M1405.4 99L1251.3 235L1386.4 313Z" fill="#f7fbf8" stroke="#f7fbf8"></path><path d="M1355.4 1080L1397.4 951L1198.3 965Z" fill="#f9fcfa" stroke="#f9fcfa"></path><path d="M504.6 981L713.7 1080L711.7 934Z" fill="#fdfefd" stroke="#fdfefd"></path><path d="M1397.4 951L1530.6 784L1351.4 790Z" fill="#f7fbf8" stroke="#f7fbf8"></path><path d="M1490.6 696L1620.7 672L1484.6 501Z" fill="#f4f9f6" stroke="#f4f9f6"></path><path d="M452.4 415L435.4 581L518.6 522Z" fill="#f6faf8" stroke="#f6faf8"></path><path d="M518.6 522L435.4 581L585.6 688Z" fill="#f5faf7" stroke="#f5faf7"></path><path d="M452.4 415L518.6 522L586.6 393Z" fill="#fdfefd" stroke="#fdfefd"></path><path d="M541.6 244L452.4 415L586.6 393Z" fill="#f8fbf9" stroke="#f8fbf9"></path><path d="M541.6 244L586.6 393L672.7 274Z" fill="#f6faf8" stroke="#f6faf8"></path><path d="M589.6 125L541.6 244L672.7 274Z" fill="#f7fbf8" stroke="#f7fbf8"></path><path d="M844.9 114L660.7 116L672.7 274Z" fill="#f7fbf8" stroke="#f7fbf8"></path><path d="M804.9 0L660.7 116L844.9 114Z" fill="#fdfefd" stroke="#fdfefd"></path><path d="M1100.1 0L998 0L1101.1 92Z" fill="#f7fbf8" stroke="#f7fbf8"></path><path d="M1101.1 92L998 0L994 158Z" fill="#fdfefd" stroke="#fdfefd"></path><path d="M1202.3 1080L1355.4 1080L1198.3 965Z" fill="#fefefe" stroke="#fefefe"></path><path d="M1397.4 951L1477.6 973L1530.6 784Z" fill="#f7fbf8" stroke="#f7fbf8"></path><path d="M1204.3 0L1100.1 0L1101.1 92Z" fill="#fbfdfc" stroke="#fbfdfc"></path><path d="M1355.4 1080L1477.6 973L1397.4 951Z" fill="#fafdfb" stroke="#fafdfb"></path><path d="M585.6 0L589.6 125L660.7 116Z" fill="#fdfefd" stroke="#fdfefd"></path><path d="M660.7 116L589.6 125L672.7 274Z" fill="#f5faf7" stroke="#f5faf7"></path><path d="M541.6 244L394.4 226L452.4 415Z" fill="#fafdfb" stroke="#fafdfb"></path><path d="M1604.7 382L1539.6 280L1500.6 434Z" fill="#fdfefd" stroke="#fdfefd"></path><path d="M1500.6 434L1539.6 280L1386.4 313Z" fill="#fdfefd" stroke="#fdfefd"></path><path d="M1207.3 106L1204.3 0L1101.1 92Z" fill="#fafdfb" stroke="#fafdfb"></path><path d="M1684.7 809L1620.7 672L1530.6 784Z" fill="#f4f9f6" stroke="#f4f9f6"></path><path d="M1530.6 784L1620.7 672L1490.6 696Z" fill="#fbfdfc" stroke="#fbfdfc"></path><path d="M532.6 806L504.6 981L711.7 934Z" fill="#f8fbf9" stroke="#f8fbf9"></path><path d="M385.4 831L504.6 981L532.6 806Z" fill="#f4f9f6" stroke="#f4f9f6"></path><path d="M998 0L804.9 0L844.9 114Z" fill="#f8fbf9" stroke="#f8fbf9"></path><path d="M1337.4 0L1204.3 0L1207.3 106Z" fill="#fefefe" stroke="#fefefe"></path><path d="M266.3 659L369.4 662L244.3 512Z" fill="#fefefe" stroke="#fefefe"></path><path d="M435.4 581L369.4 662L585.6 688Z" fill="#f8fbf9" stroke="#f8fbf9"></path><path d="M1539.6 280L1405.4 99L1386.4 313Z" fill="#f6faf8" stroke="#f6faf8"></path><path d="M1647.7 515L1500.6 434L1484.6 501Z" fill="#f5faf7" stroke="#f5faf7"></path><path d="M1620.7 672L1647.7 515L1484.6 501Z" fill="#fbfdfc" stroke="#fbfdfc"></path><path d="M369.4 662L385.4 831L532.6 806Z" fill="#f9fcfa" stroke="#f9fcfa"></path><path d="M804.9 0L680.7 0L660.7 116Z" fill="#fbfdfc" stroke="#fbfdfc"></path><path d="M418.4 1080L519.6 1080L504.6 981Z" fill="#fefefe" stroke="#fefefe"></path><path d="M504.6 981L519.6 1080L713.7 1080Z" fill="#f7fbf8" stroke="#f7fbf8"></path><path d="M1485.6 0L1337.4 0L1405.4 99Z" fill="#fefefe" stroke="#fefefe"></path><path d="M1405.4 99L1337.4 0L1207.3 106Z" fill="#f8fbf9" stroke="#f8fbf9"></path><path d="M378.4 145L541.6 244L589.6 125Z" fill="#f6faf8" stroke="#f6faf8"></path><path d="M378.4 145L394.4 226L541.6 244Z" fill="#f5faf7" stroke="#f5faf7"></path><path d="M452.4 415L283.3 441L435.4 581Z" fill="#f8fbf9" stroke="#f8fbf9"></path><path d="M1657.7 107L1513.6 99L1539.6 280Z" fill="#fafdfb" stroke="#fafdfb"></path><path d="M1539.6 280L1513.6 99L1405.4 99Z" fill="#fafdfb" stroke="#fafdfb"></path><path d="M1686.7 227L1539.6 280L1604.7 382Z" fill="#f6faf8" stroke="#f6faf8"></path><path d="M385.4 831L368.4 937L504.6 981Z" fill="#fdfefd" stroke="#fdfefd"></path><path d="M317.3 829L368.4 937L385.4 831Z" fill="#f7fbf8" stroke="#f7fbf8"></path><path d="M1650.7 951L1684.7 809L1530.6 784Z" fill="#ffffff" stroke="#ffffff"></path><path d="M1620.7 672L1747.9 668L1647.7 515Z" fill="#f5faf7" stroke="#f5faf7"></path><path d="M1650.7 951L1530.6 784L1477.6 973Z" fill="#f9fcfa" stroke="#f9fcfa"></path><path d="M266.3 659L317.3 829L369.4 662Z" fill="#ffffff" stroke="#ffffff"></path><path d="M369.4 662L317.3 829L385.4 831Z" fill="#f4f9f6" stroke="#f4f9f6"></path><path d="M680.7 0L585.6 0L660.7 116Z" fill="#f8fbf9" stroke="#f8fbf9"></path><path d="M295.3 263L283.3 441L452.4 415Z" fill="#f6faf8" stroke="#f6faf8"></path><path d="M1355.4 1080L1551.6 1080L1477.6 973Z" fill="#f8fbf9" stroke="#f8fbf9"></path><path d="M244.3 512L369.4 662L435.4 581Z" fill="#f6faf8" stroke="#f6faf8"></path><path d="M1551.6 1080L1650.7 951L1477.6 973Z" fill="#fafdfb" stroke="#fafdfb"></path><path d="M1796.9 790L1747.9 668L1684.7 809Z" fill="#f8fbf9" stroke="#f8fbf9"></path><path d="M1684.7 809L1747.9 668L1620.7 672Z" fill="#f7fbf8" stroke="#f7fbf8"></path><path d="M1795.9 363L1686.7 227L1604.7 382Z" fill="#f5faf7" stroke="#f5faf7"></path><path d="M282.3 968L418.4 1080L368.4 937Z" fill="#fefefe" stroke="#fefefe"></path><path d="M368.4 937L418.4 1080L504.6 981Z" fill="#f6faf8" stroke="#f6faf8"></path><path d="M177.1 420L244.3 512L283.3 441Z" fill="#f8fbf9" stroke="#f8fbf9"></path><path d="M283.3 441L244.3 512L435.4 581Z" fill="#ffffff" stroke="#ffffff"></path><path d="M445.4 0L378.4 145L589.6 125Z" fill="#fbfdfc" stroke="#fbfdfc"></path><path d="M394.4 226L295.3 263L452.4 415Z" fill="#f4f9f6" stroke="#f4f9f6"></path><path d="M1638.7 0L1485.6 0L1513.6 99Z" fill="#f6faf8" stroke="#f6faf8"></path><path d="M1513.6 99L1485.6 0L1405.4 99Z" fill="#f5faf7" stroke="#f5faf7"></path><path d="M378.4 145L295.3 263L394.4 226Z" fill="#f6faf8" stroke="#f6faf8"></path><path d="M1795.9 363L1604.7 382L1647.7 515Z" fill="#fbfdfc" stroke="#fbfdfc"></path><path d="M317.3 829L282.3 968L368.4 937Z" fill="#f7fbf8" stroke="#f7fbf8"></path><path d="M100.1 778L282.3 968L317.3 829Z" fill="#f7fbf8" stroke="#f7fbf8"></path><path d="M155.1 670L317.3 829L266.3 659Z" fill="#fbfdfc" stroke="#fbfdfc"></path><path d="M1920 639L1807.9 567L1747.9 668Z" fill="#f9fcfa" stroke="#f9fcfa"></path><path d="M1747.9 668L1807.9 567L1647.7 515Z" fill="#f8fbf9" stroke="#f8fbf9"></path><path d="M585.6 0L445.4 0L589.6 125Z" fill="#f4f9f6" stroke="#f4f9f6"></path><path d="M378.4 145L287.3 112L295.3 263Z" fill="#fdfefd" stroke="#fdfefd"></path><path d="M1782.9 167L1657.7 107L1686.7 227Z" fill="#ffffff" stroke="#ffffff"></path><path d="M1686.7 227L1657.7 107L1539.6 280Z" fill="#ffffff" stroke="#ffffff"></path><path d="M1751.9 956L1684.7 809L1650.7 951Z" fill="#f5faf7" stroke="#f5faf7"></path><path d="M1751.9 956L1796.9 790L1684.7 809Z" fill="#f9fcfa" stroke="#f9fcfa"></path><path d="M1551.6 1080L1669.7 1080L1650.7 951Z" fill="#fbfdfc" stroke="#fbfdfc"></path><path d="M1807.9 567L1795.9 363L1647.7 515Z" fill="#f7fbf8" stroke="#f7fbf8"></path><path d="M1669.7 1080L1751.9 956L1650.7 951Z" fill="#fafdfb" stroke="#fafdfb"></path><path d="M295.3 263L177.1 420L283.3 441Z" fill="#f8fbf9" stroke="#f8fbf9"></path><path d="M244.3 512L155.1 670L266.3 659Z" fill="#f6faf8" stroke="#f6faf8"></path><path d="M115.1 273L177.1 420L295.3 263Z" fill="#f5faf7" stroke="#f5faf7"></path><path d="M100.1 505L155.1 670L244.3 512Z" fill="#fbfdfc" stroke="#fbfdfc"></path><path d="M1920 266L1792.9 267L1795.9 363Z" fill="#fdfefd" stroke="#fdfefd"></path><path d="M1795.9 363L1792.9 267L1686.7 227Z" fill="#f7fbf8" stroke="#f7fbf8"></path><path d="M307.3 0L287.3 112L378.4 145Z" fill="#f5faf7" stroke="#f5faf7"></path><path d="M1749.9 0L1638.7 0L1657.7 107Z" fill="#f5faf7" stroke="#f5faf7"></path><path d="M1657.7 107L1638.7 0L1513.6 99Z" fill="#fbfdfc" stroke="#fbfdfc"></path><path d="M93.1 983L254.3 1080L282.3 968Z" fill="#f8fbf9" stroke="#f8fbf9"></path><path d="M282.3 968L254.3 1080L418.4 1080Z" fill="#f7fbf8" stroke="#f7fbf8"></path><path d="M1792.9 267L1782.9 167L1686.7 227Z" fill="#f9fcfa" stroke="#f9fcfa"></path><path d="M0 362L100.1 505L177.1 420Z" fill="#fafdfb" stroke="#fafdfb"></path><path d="M177.1 420L100.1 505L244.3 512Z" fill="#fdfefd" stroke="#fdfefd"></path><path d="M155.1 670L100.1 778L317.3 829Z" fill="#f4f9f6" stroke="#f4f9f6"></path><path d="M445.4 0L307.3 0L378.4 145Z" fill="#f6faf8" stroke="#f6faf8"></path><path d="M117.1 166L115.1 273L295.3 263Z" fill="#f9fcfa" stroke="#f9fcfa"></path><path d="M0 658L100.1 778L155.1 670Z" fill="#f8fbf9" stroke="#f8fbf9"></path><path d="M1920 838L1920 639L1796.9 790Z" fill="#fbfdfc" stroke="#fbfdfc"></path><path d="M1796.9 790L1920 639L1747.9 668Z" fill="#fdfefd" stroke="#fdfefd"></path><path d="M1807.9 567L1920 440L1795.9 363Z" fill="#f7fbf8" stroke="#f7fbf8"></path><path d="M1792.9 267L1920 168L1782.9 167Z" fill="#fbfdfc" stroke="#fbfdfc"></path><path d="M1920 639L1920 530L1807.9 567Z" fill="#f9fcfa" stroke="#f9fcfa"></path><path d="M1920 530L1920 440L1807.9 567Z" fill="#f7fbf8" stroke="#f7fbf8"></path><path d="M117.1 166L295.3 263L287.3 112Z" fill="#fafdfb" stroke="#fafdfb"></path><path d="M1669.7 1080L1810.9 1080L1751.9 956Z" fill="#f4f9f6" stroke="#f4f9f6"></path><path d="M1920 921L1920 838L1796.9 790Z" fill="#f9fcfa" stroke="#f9fcfa"></path><path d="M1920 921L1796.9 790L1751.9 956Z" fill="#fbfdfc" stroke="#fbfdfc"></path><path d="M1920 0L1749.9 0L1782.9 167Z" fill="#fdfefd" stroke="#fdfefd"></path><path d="M1782.9 167L1749.9 0L1657.7 107Z" fill="#f7fbf8" stroke="#f7fbf8"></path><path d="M1810.9 1080L1920 921L1751.9 956Z" fill="#fbfdfc" stroke="#fbfdfc"></path><path d="M1920 440L1920 266L1795.9 363Z" fill="#ffffff" stroke="#ffffff"></path><path d="M108.1 0L117.1 166L287.3 112Z" fill="#f9fcfa" stroke="#f9fcfa"></path><path d="M0 362L0 556L100.1 505Z" fill="#f7fbf8" stroke="#f7fbf8"></path><path d="M0 845L93.1 983L100.1 778Z" fill="#ffffff" stroke="#ffffff"></path><path d="M100.1 778L93.1 983L282.3 968Z" fill="#fefefe" stroke="#fefefe"></path><path d="M0 362L177.1 420L115.1 273Z" fill="#fafdfb" stroke="#fafdfb"></path><path d="M100.1 505L0 556L155.1 670Z" fill="#f4f9f6" stroke="#f4f9f6"></path><path d="M0 556L0 658L155.1 670Z" fill="#f9fcfa" stroke="#f9fcfa"></path><path d="M93.1 983L115.1 1080L254.3 1080Z" fill="#f8fbf9" stroke="#f8fbf9"></path><path d="M0 1080L115.1 1080L93.1 983Z" fill="#fafdfb" stroke="#fafdfb"></path><path d="M1920 266L1920 168L1792.9 267Z" fill="#fdfefd" stroke="#fdfefd"></path><path d="M0 276L0 362L115.1 273Z" fill="#fbfdfc" stroke="#fbfdfc"></path><path d="M0 658L0 845L100.1 778Z" fill="#f6faf8" stroke="#f6faf8"></path><path d="M1810.9 1080L1920 1080L1920 921Z" fill="#ffffff" stroke="#ffffff"></path><path d="M117.1 166L0 276L115.1 273Z" fill="#fdfefd" stroke="#fdfefd"></path><path d="M0 845L0 944L93.1 983Z" fill="#fefefe" stroke="#fefefe"></path><path d="M307.3 0L108.1 0L287.3 112Z" fill="#fafdfb" stroke="#fafdfb"></path><path d="M117.1 166L0 107L0 276Z" fill="#f4f9f6" stroke="#f4f9f6"></path><path d="M1920 168L1920 0L1782.9 167Z" fill="#f8fbf9" stroke="#f8fbf9"></path><path d="M0 944L0 1080L93.1 983Z" fill="#f7fbf8" stroke="#f7fbf8"></path><path d="M108.1 0L0 107L117.1 166Z" fill="#f9fcfa" stroke="#f9fcfa"></path><path d="M108.1 0L0 0L0 107Z" fill="#fafdfb" stroke="#fafdfb"></path></g></svg>